<svg width="800" height="600" xmlns="http://www.w3.org/2000/svg">
 <g id="Layer_1">
  <title>Layer 1</title>
  <g id="svg_6">
   <path fill="#999999" id="svg_4" d="m337.92227,400.19557c-2.92013,0 -5.82802,-0.80418 -8.41792,-2.40643c-4.75935,-2.94 -7.59845,-8.03571 -7.59845,-13.63134l0,-23.48334c-16.75787,-21.23133 -24.0001,-47.74487 -20.40879,-74.95252c5.7577,-43.6521 41.63553,-79.43056 85.30292,-85.06748c30.75767,-3.97352 60.94966,6.10781 82.86745,27.64337c21.91931,21.53557 32.52504,51.52422 29.10344,82.28036c-4.9581,44.5419 -40.92614,81.1857 -85.51849,87.1345c-17.77762,2.35751 -35.75705,-0.10396 -52.25196,-7.16884l-15.90171,7.94551c-2.27801,1.13747 -4.73336,1.70621 -7.17648,1.70621zm50.69405,-185.45264c-37.39294,4.82662 -68.11238,35.45893 -73.04603,72.83657c-3.17851,24.10864 3.53014,47.56446 18.89522,66.03619c1.0595,1.27507 1.63894,2.88344 1.63894,4.54072l0,26.00138c0,0.83782 0.47242,1.30259 0.86381,1.55333c0.40209,0.24156 1.03657,0.44949 1.78266,0.07491l18.91357,-9.4499c1.93554,-0.97083 4.22272,-1.00446 6.1919,-0.07644c14.88043,6.98232 31.30501,9.53399 47.51554,7.37829c38.21852,-5.09723 69.03735,-36.48479 73.28759,-74.62687c2.93695,-26.39582 -6.15673,-52.12659 -24.94646,-70.58303c-18.78667,-18.46408 -44.69937,-27.10369 -71.09672,-23.68515zm-0.90814,-7.045l0.0688,0l-0.0688,0zm0,0"/>
   <path fill="#999999" id="svg_5" d="m350.65617,321.66093l32.59231,-46.38724c1.35763,-2.37585 4.48874,-3.02256 6.67654,-1.38209l21.8337,16.37413c1.47994,1.10995 3.48275,1.21239 5.06818,0.26144l26.58693,-18.79279c3.90166,-2.34069 8.44086,1.86368 6.40747,5.93352l-26.32091,45.54025c-1.18487,2.36974 -4.13558,3.22896 -6.40747,1.86521l-29.14777,-17.48866c-1.33317,-0.7996 -2.98281,-0.86381 -4.37408,-0.16818l-26.93398,20.56627c-4.02244,2.01352 -8.21306,-2.4156 -5.98091,-6.32185zm0,0"/>
  </g>
 </g>

</svg>