<svg width="800" height="600" xmlns="http://www.w3.org/2000/svg">
 <g id="Layer_1">
  <title>Layer 1</title>
  <g id="svg_24">
   <g transform="matrix(0.666667 0 0 0.666667 0 0)" id="svg_6">
    <path fill="#999999" d="m455.29879,444.64424l69.126,25.8l26.756,86.047c1.712,5.511 8.451,7.548 12.924,3.891l38.532,-31.412c4.039,-3.291 9.792,-3.455 14.013,-0.391l69.498,50.457c4.785,3.478 11.564,0.856 12.764,-4.926l50.911,-244.891c1.31,-6.316 -4.896,-11.585 -10.91,-9.259l-283.695,109.441c-7.001,2.7 -6.94,12.612 0.081,15.243zm91.57,12.066l135.098,-83.207c2.428,-1.491 4.926,1.792 2.841,3.726l-111.495,103.64c-3.919,3.648 -6.447,8.53 -7.163,13.829l-3.798,28.146c-0.503,3.758 -5.782,4.131 -6.819,0.494l-14.607,-51.325c-1.673,-5.854 0.765,-12.107 5.943,-15.303z" id="svg_7"/>
   </g>
   <g transform="matrix(0.666667 0 0 0.666667 0 0)" id="svg_9"/>
   <g transform="matrix(0.666667 0 0 0.666667 0 0)" id="svg_10"/>
   <g transform="matrix(0.666667 0 0 0.666667 0 0)" id="svg_11"/>
   <g transform="matrix(0.666667 0 0 0.666667 0 0)" id="svg_12"/>
   <g transform="matrix(0.666667 0 0 0.666667 0 0)" id="svg_13"/>
   <g transform="matrix(0.666667 0 0 0.666667 0 0)" id="svg_14"/>
   <g transform="matrix(0.666667 0 0 0.666667 0 0)" id="svg_15"/>
   <g transform="matrix(0.666667 0 0 0.666667 0 0)" id="svg_16"/>
   <g transform="matrix(0.666667 0 0 0.666667 0 0)" id="svg_17"/>
   <g transform="matrix(0.666667 0 0 0.666667 0 0)" id="svg_18"/>
   <g transform="matrix(0.666667 0 0 0.666667 0 0)" id="svg_19"/>
   <g transform="matrix(0.666667 0 0 0.666667 0 0)" id="svg_20"/>
   <g transform="matrix(0.666667 0 0 0.666667 0 0)" id="svg_21"/>
   <g transform="matrix(0.666667 0 0 0.666667 0 0)" id="svg_22"/>
   <g transform="matrix(0.666667 0 0 0.666667 0 0)" id="svg_23"/>
  </g>
 </g>

</svg>