<svg width="800" height="600" xmlns="http://www.w3.org/2000/svg">
 <g id="Layer_1">
  <title>Layer 1</title>
  <g id="svg_6">
   <path fill="#BBBBBB" id="svg_4" d="m406.71707,313.02132c-2.29177,2.2933 -6.00843,2.2933 -8.30173,0l-26.67866,-26.67866c-1.10078,-1.10078 -1.71997,-2.59448 -1.71997,-4.15086c0,-1.55791 0.61919,-3.05008 1.71997,-4.15239l4.74253,-4.741l-13.92948,-13.92947l-11.41144,11.41144c-3.8405,3.8405 -3.83897,10.08897 0,13.92947l48.90987,48.91292c1.84839,1.8484 4.3221,2.86509 6.9655,2.86509c2.64341,0 5.11711,-1.01822 6.9655,-2.86662l11.41144,-11.4099l-13.92948,-13.931l-4.74406,4.741zm0,0"/>
   <path fill="#BBBBBB" id="svg_5" d="m491.67906,270.53268c0,-18.82184 -7.37524,-36.56276 -20.77114,-49.95714c-13.39437,-13.39437 -31.1353,-20.77113 -49.95561,-20.77113l-41.90767,0s0,0 -0.00153,0c-18.81878,0 -36.55971,7.37677 -49.95255,20.76961c-13.39437,13.39437 -20.77113,31.13683 -20.77113,49.95713l0,32.94089c0,14.57466 4.44593,28.59586 12.85774,40.54698c7.4211,10.54304 17.40152,18.7775 29.0377,24.00009l0,18.92121c0,9.7832 5.47792,13.25371 10.16847,13.25525c3.35127,0 6.70406,-1.65423 9.96666,-4.91529l21.07844,-21.08149l29.52541,0c18.82031,0 36.56123,-7.37677 49.95561,-20.77114c13.39437,-13.39437 20.77113,-31.1353 20.77113,-49.95561l-0.00153,-32.93936zm-53.83433,55.8295l-15.56383,15.5623c-4.06678,4.06677 -9.48813,6.3035 -15.26723,6.3035c-5.7791,0 -11.20045,-2.23826 -15.26723,-6.3035l-48.91139,-48.91292c-8.41639,-8.41945 -8.41639,-22.11653 0,-30.53445l15.56383,-15.5623c1.10078,-1.10231 2.59295,-1.71997 4.15086,-1.71997c1.55639,0 3.05008,0.61766 4.15086,1.71997l22.23273,22.23273c1.10078,1.10078 1.71844,2.59448 1.71844,4.15086c0,1.55639 -0.61766,3.05008 -1.71997,4.15086l-4.741,4.741l18.37694,18.37694l4.74253,-4.74253c2.29329,-2.29177 6.00996,-2.29177 8.30172,0.00153l22.23273,22.23273c1.10231,1.10078 1.71997,2.59448 1.71997,4.15086c0,1.55791 -0.61766,3.05161 -1.71997,4.15239zm-42.29142,-69.56328c0,-3.24119 2.62812,-5.87083 5.87083,-5.87083c20.34153,0 36.89147,16.54842 36.89147,36.88841c0,3.24272 -2.62812,5.87083 -5.87083,5.87083c-3.24119,0 -5.87083,-2.62811 -5.87083,-5.87083c0,-13.86526 -11.28148,-25.14674 -25.1498,-25.14674c-3.24272,0 -5.87083,-2.62811 -5.87083,-5.87083zm62.0428,36.89147c-3.24272,0 -5.87083,-2.62964 -5.87083,-5.87083c0.00153,-13.43718 -5.23177,-26.06865 -14.73212,-35.57053c-9.50188,-9.50035 -22.13335,-14.73365 -35.57053,-14.73365c-3.24119,0 -5.87083,-2.62811 -5.87083,-5.87083c0,-3.24119 2.62964,-5.87083 5.87083,-5.87083c16.57288,0 32.15352,6.45486 43.87226,18.1736c11.72026,11.71873 18.1736,27.29938 18.17207,43.87226c0,3.24119 -2.62811,5.87083 -5.87083,5.87083zm0,0"/>
  </g>
 </g>

</svg>